<mxfile host="app.diagrams.net" modified="2020-12-08T14:26:44.955Z" agent="5.0 (Macintosh; Intel Mac OS X 10_15_7) AppleWebKit/605.1.15 (KHTML, like Gecko) Version/14.0.1 Safari/605.1.15" etag="2uKMjDemXLeHncQCUdoF" version="13.10.9" type="github" pages="4">
  <diagram id="VT2f-Ld-fOvwMGKV6vzP" name="Task-1">
    <mxGraphModel dx="1113" dy="523" grid="1" gridSize="10" guides="1" tooltips="1" connect="1" arrows="1" fold="1" page="1" pageScale="1" pageWidth="827" pageHeight="1169" math="0" shadow="0">
      <root>
        <mxCell id="0" />
        <mxCell id="1" parent="0" />
        <mxCell id="t2oTwk8DVBexvegv-AdL-6" style="edgeStyle=orthogonalEdgeStyle;rounded=0;orthogonalLoop=1;jettySize=auto;html=1;exitX=0.5;exitY=1;exitDx=0;exitDy=0;entryX=0.5;entryY=0;entryDx=0;entryDy=0;" edge="1" parent="1" source="LcvdypNpKHE5uMJmsT2d-2" target="LcvdypNpKHE5uMJmsT2d-3">
          <mxGeometry relative="1" as="geometry">
            <Array as="points">
              <mxPoint x="523" y="110" />
              <mxPoint x="523" y="110" />
            </Array>
          </mxGeometry>
        </mxCell>
        <mxCell id="LcvdypNpKHE5uMJmsT2d-2" value="Начало" style="ellipse;whiteSpace=wrap;html=1;" vertex="1" parent="1">
          <mxGeometry x="463" y="30" width="120" height="30" as="geometry" />
        </mxCell>
        <mxCell id="LcvdypNpKHE5uMJmsT2d-62" style="edgeStyle=orthogonalEdgeStyle;rounded=0;orthogonalLoop=1;jettySize=auto;html=1;exitX=0.5;exitY=1;exitDx=0;exitDy=0;entryX=0.5;entryY=0;entryDx=0;entryDy=0;" edge="1" parent="1" source="LcvdypNpKHE5uMJmsT2d-3" target="LcvdypNpKHE5uMJmsT2d-6">
          <mxGeometry relative="1" as="geometry" />
        </mxCell>
        <mxCell id="LcvdypNpKHE5uMJmsT2d-3" value="Введите &lt;br&gt;2 числа" style="shape=parallelogram;perimeter=parallelogramPerimeter;whiteSpace=wrap;html=1;fixedSize=1;" vertex="1" parent="1">
          <mxGeometry x="463" y="150" width="120" height="60" as="geometry" />
        </mxCell>
        <mxCell id="LcvdypNpKHE5uMJmsT2d-63" style="edgeStyle=orthogonalEdgeStyle;rounded=0;orthogonalLoop=1;jettySize=auto;html=1;exitX=0.5;exitY=1;exitDx=0;exitDy=0;" edge="1" parent="1" source="LcvdypNpKHE5uMJmsT2d-6">
          <mxGeometry relative="1" as="geometry">
            <mxPoint x="523" y="320" as="targetPoint" />
          </mxGeometry>
        </mxCell>
        <mxCell id="LcvdypNpKHE5uMJmsT2d-6" value="Ввод а, b" style="shape=parallelogram;perimeter=parallelogramPerimeter;whiteSpace=wrap;html=1;fixedSize=1;" vertex="1" parent="1">
          <mxGeometry x="463" y="230" width="120" height="60" as="geometry" />
        </mxCell>
        <mxCell id="LcvdypNpKHE5uMJmsT2d-64" style="edgeStyle=orthogonalEdgeStyle;rounded=0;orthogonalLoop=1;jettySize=auto;html=1;exitX=0.5;exitY=1;exitDx=0;exitDy=0;entryX=0.5;entryY=0;entryDx=0;entryDy=0;" edge="1" parent="1" source="LcvdypNpKHE5uMJmsT2d-7" target="LcvdypNpKHE5uMJmsT2d-8">
          <mxGeometry relative="1" as="geometry" />
        </mxCell>
        <mxCell id="LcvdypNpKHE5uMJmsT2d-7" value="Введите &lt;br&gt;операцию&lt;br&gt;+, -, *, /&lt;br&gt;или 0 для выхода" style="shape=parallelogram;perimeter=parallelogramPerimeter;whiteSpace=wrap;html=1;fixedSize=1;" vertex="1" parent="1">
          <mxGeometry x="450" y="320" width="146" height="60" as="geometry" />
        </mxCell>
        <mxCell id="LcvdypNpKHE5uMJmsT2d-65" style="edgeStyle=orthogonalEdgeStyle;rounded=0;orthogonalLoop=1;jettySize=auto;html=1;exitX=0.5;exitY=1;exitDx=0;exitDy=0;entryX=0.5;entryY=0;entryDx=0;entryDy=0;" edge="1" parent="1" source="LcvdypNpKHE5uMJmsT2d-8" target="LcvdypNpKHE5uMJmsT2d-10">
          <mxGeometry relative="1" as="geometry" />
        </mxCell>
        <mxCell id="LcvdypNpKHE5uMJmsT2d-8" value="Ввод x" style="shape=parallelogram;perimeter=parallelogramPerimeter;whiteSpace=wrap;html=1;fixedSize=1;" vertex="1" parent="1">
          <mxGeometry x="463" y="400" width="120" height="60" as="geometry" />
        </mxCell>
        <mxCell id="t2oTwk8DVBexvegv-AdL-5" style="edgeStyle=orthogonalEdgeStyle;rounded=0;orthogonalLoop=1;jettySize=auto;html=1;exitX=0.5;exitY=0;exitDx=0;exitDy=0;entryX=0.5;entryY=0;entryDx=0;entryDy=0;" edge="1" parent="1" source="LcvdypNpKHE5uMJmsT2d-9" target="LcvdypNpKHE5uMJmsT2d-3">
          <mxGeometry relative="1" as="geometry">
            <Array as="points">
              <mxPoint x="161" y="100" />
              <mxPoint x="523" y="100" />
            </Array>
          </mxGeometry>
        </mxCell>
        <mxCell id="t2oTwk8DVBexvegv-AdL-11" style="edgeStyle=orthogonalEdgeStyle;rounded=0;orthogonalLoop=1;jettySize=auto;html=1;exitX=1;exitY=0.5;exitDx=0;exitDy=0;entryX=0.5;entryY=0;entryDx=0;entryDy=0;" edge="1" parent="1" source="LcvdypNpKHE5uMJmsT2d-9" target="LcvdypNpKHE5uMJmsT2d-11">
          <mxGeometry relative="1" as="geometry" />
        </mxCell>
        <mxCell id="LcvdypNpKHE5uMJmsT2d-9" value="While True:" style="rhombus;whiteSpace=wrap;html=1;" vertex="1" parent="1">
          <mxGeometry x="76" y="400" width="170" height="80" as="geometry" />
        </mxCell>
        <mxCell id="LcvdypNpKHE5uMJmsT2d-12" style="edgeStyle=orthogonalEdgeStyle;rounded=0;orthogonalLoop=1;jettySize=auto;html=1;exitX=0;exitY=0.5;exitDx=0;exitDy=0;entryX=0.5;entryY=0;entryDx=0;entryDy=0;" edge="1" parent="1" source="LcvdypNpKHE5uMJmsT2d-10" target="LcvdypNpKHE5uMJmsT2d-11">
          <mxGeometry relative="1" as="geometry" />
        </mxCell>
        <mxCell id="LcvdypNpKHE5uMJmsT2d-19" style="edgeStyle=orthogonalEdgeStyle;rounded=0;orthogonalLoop=1;jettySize=auto;html=1;exitX=1;exitY=0.5;exitDx=0;exitDy=0;entryX=0.5;entryY=0;entryDx=0;entryDy=0;" edge="1" parent="1" source="LcvdypNpKHE5uMJmsT2d-10">
          <mxGeometry relative="1" as="geometry">
            <mxPoint x="523" y="585" as="targetPoint" />
          </mxGeometry>
        </mxCell>
        <mxCell id="LcvdypNpKHE5uMJmsT2d-10" value="x == &#39;0&#39;" style="rhombus;whiteSpace=wrap;html=1;" vertex="1" parent="1">
          <mxGeometry x="483" y="480" width="80" height="80" as="geometry" />
        </mxCell>
        <mxCell id="LcvdypNpKHE5uMJmsT2d-11" value="Конец" style="ellipse;whiteSpace=wrap;html=1;" vertex="1" parent="1">
          <mxGeometry x="270" y="540" width="120" height="30" as="geometry" />
        </mxCell>
        <mxCell id="LcvdypNpKHE5uMJmsT2d-15" value="Text" style="text;html=1;strokeColor=none;fillColor=none;align=center;verticalAlign=middle;whiteSpace=wrap;rounded=0;" vertex="1" parent="1">
          <mxGeometry x="460" y="330" width="40" height="20" as="geometry" />
        </mxCell>
        <mxCell id="LcvdypNpKHE5uMJmsT2d-16" value="True" style="text;html=1;align=center;verticalAlign=middle;resizable=0;points=[];autosize=1;" vertex="1" parent="1">
          <mxGeometry x="110" y="350" width="40" height="20" as="geometry" />
        </mxCell>
        <mxCell id="LcvdypNpKHE5uMJmsT2d-18" value="True" style="text;html=1;align=center;verticalAlign=middle;resizable=0;points=[];autosize=1;" vertex="1" parent="1">
          <mxGeometry x="434" y="630" width="40" height="20" as="geometry" />
        </mxCell>
        <mxCell id="LcvdypNpKHE5uMJmsT2d-49" style="edgeStyle=orthogonalEdgeStyle;rounded=0;orthogonalLoop=1;jettySize=auto;html=1;exitX=1;exitY=0.5;exitDx=0;exitDy=0;entryX=0.5;entryY=0;entryDx=0;entryDy=0;" edge="1" parent="1" source="LcvdypNpKHE5uMJmsT2d-20" target="LcvdypNpKHE5uMJmsT2d-21">
          <mxGeometry relative="1" as="geometry" />
        </mxCell>
        <mxCell id="LcvdypNpKHE5uMJmsT2d-50" style="edgeStyle=orthogonalEdgeStyle;rounded=0;orthogonalLoop=1;jettySize=auto;html=1;exitX=0;exitY=0.5;exitDx=0;exitDy=0;entryX=0.5;entryY=0;entryDx=0;entryDy=0;" edge="1" parent="1" source="LcvdypNpKHE5uMJmsT2d-20" target="LcvdypNpKHE5uMJmsT2d-24">
          <mxGeometry relative="1" as="geometry">
            <Array as="points">
              <mxPoint x="483" y="650" />
              <mxPoint x="300" y="650" />
            </Array>
          </mxGeometry>
        </mxCell>
        <mxCell id="LcvdypNpKHE5uMJmsT2d-20" value="x == &#39;+&#39;" style="rhombus;whiteSpace=wrap;html=1;" vertex="1" parent="1">
          <mxGeometry x="483" y="585" width="80" height="80" as="geometry" />
        </mxCell>
        <mxCell id="LcvdypNpKHE5uMJmsT2d-48" style="edgeStyle=orthogonalEdgeStyle;rounded=0;orthogonalLoop=1;jettySize=auto;html=1;exitX=1;exitY=0.5;exitDx=0;exitDy=0;" edge="1" parent="1" source="LcvdypNpKHE5uMJmsT2d-21" target="LcvdypNpKHE5uMJmsT2d-22">
          <mxGeometry relative="1" as="geometry" />
        </mxCell>
        <mxCell id="LcvdypNpKHE5uMJmsT2d-51" style="edgeStyle=orthogonalEdgeStyle;rounded=0;orthogonalLoop=1;jettySize=auto;html=1;exitX=0;exitY=0.5;exitDx=0;exitDy=0;entryX=0.5;entryY=0;entryDx=0;entryDy=0;" edge="1" parent="1" source="LcvdypNpKHE5uMJmsT2d-21" target="LcvdypNpKHE5uMJmsT2d-25">
          <mxGeometry relative="1" as="geometry">
            <Array as="points">
              <mxPoint x="483" y="740" />
              <mxPoint x="300" y="740" />
            </Array>
          </mxGeometry>
        </mxCell>
        <mxCell id="LcvdypNpKHE5uMJmsT2d-21" value="x == &#39;-&#39;" style="rhombus;whiteSpace=wrap;html=1;" vertex="1" parent="1">
          <mxGeometry x="483" y="690" width="80" height="80" as="geometry" />
        </mxCell>
        <mxCell id="LcvdypNpKHE5uMJmsT2d-47" style="edgeStyle=orthogonalEdgeStyle;rounded=0;orthogonalLoop=1;jettySize=auto;html=1;exitX=1;exitY=0.5;exitDx=0;exitDy=0;" edge="1" parent="1" source="LcvdypNpKHE5uMJmsT2d-22" target="LcvdypNpKHE5uMJmsT2d-23">
          <mxGeometry relative="1" as="geometry" />
        </mxCell>
        <mxCell id="LcvdypNpKHE5uMJmsT2d-52" style="edgeStyle=orthogonalEdgeStyle;rounded=0;orthogonalLoop=1;jettySize=auto;html=1;exitX=0;exitY=0.5;exitDx=0;exitDy=0;entryX=0.5;entryY=0;entryDx=0;entryDy=0;" edge="1" parent="1" source="LcvdypNpKHE5uMJmsT2d-22" target="LcvdypNpKHE5uMJmsT2d-26">
          <mxGeometry relative="1" as="geometry">
            <Array as="points">
              <mxPoint x="300" y="840" />
            </Array>
          </mxGeometry>
        </mxCell>
        <mxCell id="LcvdypNpKHE5uMJmsT2d-22" value="x == &#39;*&#39;" style="rhombus;whiteSpace=wrap;html=1;" vertex="1" parent="1">
          <mxGeometry x="483" y="800" width="80" height="80" as="geometry" />
        </mxCell>
        <mxCell id="LcvdypNpKHE5uMJmsT2d-43" style="edgeStyle=orthogonalEdgeStyle;rounded=0;orthogonalLoop=1;jettySize=auto;html=1;exitX=0;exitY=0.5;exitDx=0;exitDy=0;entryX=0.5;entryY=0;entryDx=0;entryDy=0;" edge="1" parent="1" source="LcvdypNpKHE5uMJmsT2d-23" target="LcvdypNpKHE5uMJmsT2d-7">
          <mxGeometry relative="1" as="geometry">
            <Array as="points">
              <mxPoint x="640" y="950" />
              <mxPoint x="640" y="300" />
              <mxPoint x="523" y="300" />
            </Array>
          </mxGeometry>
        </mxCell>
        <mxCell id="LcvdypNpKHE5uMJmsT2d-44" style="edgeStyle=orthogonalEdgeStyle;rounded=0;orthogonalLoop=1;jettySize=auto;html=1;exitX=0;exitY=0.5;exitDx=0;exitDy=0;entryX=0.5;entryY=0;entryDx=0;entryDy=0;" edge="1" parent="1" source="LcvdypNpKHE5uMJmsT2d-23" target="LcvdypNpKHE5uMJmsT2d-37">
          <mxGeometry relative="1" as="geometry" />
        </mxCell>
        <mxCell id="LcvdypNpKHE5uMJmsT2d-23" value="x == &#39;/&#39;" style="rhombus;whiteSpace=wrap;html=1;" vertex="1" parent="1">
          <mxGeometry x="483" y="910" width="80" height="80" as="geometry" />
        </mxCell>
        <mxCell id="t2oTwk8DVBexvegv-AdL-1" style="edgeStyle=orthogonalEdgeStyle;rounded=0;orthogonalLoop=1;jettySize=auto;html=1;exitX=0;exitY=0.5;exitDx=0;exitDy=0;entryX=0.5;entryY=1;entryDx=0;entryDy=0;" edge="1" parent="1" source="LcvdypNpKHE5uMJmsT2d-24" target="LcvdypNpKHE5uMJmsT2d-9">
          <mxGeometry relative="1" as="geometry">
            <Array as="points">
              <mxPoint x="160" y="700" />
              <mxPoint x="160" y="575" />
              <mxPoint x="161" y="480" />
            </Array>
          </mxGeometry>
        </mxCell>
        <mxCell id="LcvdypNpKHE5uMJmsT2d-24" value="Вывод a + b" style="shape=parallelogram;perimeter=parallelogramPerimeter;whiteSpace=wrap;html=1;fixedSize=1;" vertex="1" parent="1">
          <mxGeometry x="240" y="670" width="120" height="60" as="geometry" />
        </mxCell>
        <mxCell id="LcvdypNpKHE5uMJmsT2d-25" value="Вывод a - b" style="shape=parallelogram;perimeter=parallelogramPerimeter;whiteSpace=wrap;html=1;fixedSize=1;" vertex="1" parent="1">
          <mxGeometry x="240" y="760" width="120" height="60" as="geometry" />
        </mxCell>
        <mxCell id="LcvdypNpKHE5uMJmsT2d-26" value="Вывод a * b" style="shape=parallelogram;perimeter=parallelogramPerimeter;whiteSpace=wrap;html=1;fixedSize=1;" vertex="1" parent="1">
          <mxGeometry x="240" y="850" width="120" height="60" as="geometry" />
        </mxCell>
        <mxCell id="LcvdypNpKHE5uMJmsT2d-39" style="edgeStyle=orthogonalEdgeStyle;rounded=0;orthogonalLoop=1;jettySize=auto;html=1;exitX=1;exitY=0.5;exitDx=0;exitDy=0;entryX=0.5;entryY=0;entryDx=0;entryDy=0;" edge="1" parent="1" source="LcvdypNpKHE5uMJmsT2d-37" target="LcvdypNpKHE5uMJmsT2d-38">
          <mxGeometry relative="1" as="geometry" />
        </mxCell>
        <mxCell id="LcvdypNpKHE5uMJmsT2d-42" style="edgeStyle=orthogonalEdgeStyle;rounded=0;orthogonalLoop=1;jettySize=auto;html=1;exitX=0;exitY=0.5;exitDx=0;exitDy=0;entryX=0.5;entryY=0;entryDx=0;entryDy=0;" edge="1" parent="1" source="LcvdypNpKHE5uMJmsT2d-37" target="LcvdypNpKHE5uMJmsT2d-41">
          <mxGeometry relative="1" as="geometry" />
        </mxCell>
        <mxCell id="LcvdypNpKHE5uMJmsT2d-37" value="b == 0" style="rhombus;whiteSpace=wrap;html=1;" vertex="1" parent="1">
          <mxGeometry x="334" y="980" width="80" height="80" as="geometry" />
        </mxCell>
        <mxCell id="LcvdypNpKHE5uMJmsT2d-38" value="На 0 делить &lt;br&gt;нельзя" style="shape=parallelogram;perimeter=parallelogramPerimeter;whiteSpace=wrap;html=1;fixedSize=1;" vertex="1" parent="1">
          <mxGeometry x="414" y="1060" width="120" height="60" as="geometry" />
        </mxCell>
        <mxCell id="LcvdypNpKHE5uMJmsT2d-41" value="Вывод a * b" style="shape=parallelogram;perimeter=parallelogramPerimeter;whiteSpace=wrap;html=1;fixedSize=1;" vertex="1" parent="1">
          <mxGeometry x="230" y="1060" width="120" height="60" as="geometry" />
        </mxCell>
        <mxCell id="LcvdypNpKHE5uMJmsT2d-45" value="True" style="text;html=1;align=center;verticalAlign=middle;resizable=0;points=[];autosize=1;" vertex="1" parent="1">
          <mxGeometry x="443" y="490" width="40" height="20" as="geometry" />
        </mxCell>
        <mxCell id="LcvdypNpKHE5uMJmsT2d-46" value="True" style="text;html=1;align=center;verticalAlign=middle;resizable=0;points=[];autosize=1;" vertex="1" parent="1">
          <mxGeometry x="434" y="711" width="40" height="20" as="geometry" />
        </mxCell>
        <mxCell id="LcvdypNpKHE5uMJmsT2d-59" value="True" style="text;html=1;align=center;verticalAlign=middle;resizable=0;points=[];autosize=1;" vertex="1" parent="1">
          <mxGeometry x="434" y="810" width="40" height="20" as="geometry" />
        </mxCell>
        <mxCell id="LcvdypNpKHE5uMJmsT2d-60" value="True" style="text;html=1;align=center;verticalAlign=middle;resizable=0;points=[];autosize=1;" vertex="1" parent="1">
          <mxGeometry x="434" y="920" width="40" height="20" as="geometry" />
        </mxCell>
        <mxCell id="LcvdypNpKHE5uMJmsT2d-66" value="True" style="text;html=1;align=center;verticalAlign=middle;resizable=0;points=[];autosize=1;" vertex="1" parent="1">
          <mxGeometry x="420" y="1000" width="40" height="20" as="geometry" />
        </mxCell>
        <mxCell id="LcvdypNpKHE5uMJmsT2d-67" value="False" style="text;html=1;align=center;verticalAlign=middle;resizable=0;points=[];autosize=1;" vertex="1" parent="1">
          <mxGeometry x="583" y="920" width="40" height="20" as="geometry" />
        </mxCell>
        <mxCell id="LcvdypNpKHE5uMJmsT2d-70" value="" style="endArrow=none;html=1;exitX=0;exitY=0.5;exitDx=0;exitDy=0;" edge="1" parent="1" source="LcvdypNpKHE5uMJmsT2d-25">
          <mxGeometry width="50" height="50" relative="1" as="geometry">
            <mxPoint x="430" y="690" as="sourcePoint" />
            <mxPoint x="160" y="700" as="targetPoint" />
            <Array as="points">
              <mxPoint x="160" y="790" />
            </Array>
          </mxGeometry>
        </mxCell>
        <mxCell id="LcvdypNpKHE5uMJmsT2d-71" value="" style="endArrow=none;html=1;exitX=0;exitY=0.5;exitDx=0;exitDy=0;" edge="1" parent="1">
          <mxGeometry width="50" height="50" relative="1" as="geometry">
            <mxPoint x="250" y="880" as="sourcePoint" />
            <mxPoint x="160" y="750" as="targetPoint" />
            <Array as="points">
              <mxPoint x="160" y="880" />
            </Array>
          </mxGeometry>
        </mxCell>
        <mxCell id="LcvdypNpKHE5uMJmsT2d-72" value="" style="endArrow=none;html=1;exitX=0;exitY=0.5;exitDx=0;exitDy=0;" edge="1" parent="1">
          <mxGeometry width="50" height="50" relative="1" as="geometry">
            <mxPoint x="240" y="1090" as="sourcePoint" />
            <mxPoint x="160" y="840" as="targetPoint" />
            <Array as="points">
              <mxPoint x="160" y="1090" />
            </Array>
          </mxGeometry>
        </mxCell>
        <mxCell id="LcvdypNpKHE5uMJmsT2d-73" value="" style="endArrow=none;html=1;exitX=0.5;exitY=1;exitDx=0;exitDy=0;" edge="1" parent="1" source="LcvdypNpKHE5uMJmsT2d-38">
          <mxGeometry width="50" height="50" relative="1" as="geometry">
            <mxPoint x="240" y="1150" as="sourcePoint" />
            <mxPoint x="160" y="900" as="targetPoint" />
            <Array as="points">
              <mxPoint x="474" y="1150" />
              <mxPoint x="160" y="1150" />
            </Array>
          </mxGeometry>
        </mxCell>
        <mxCell id="t2oTwk8DVBexvegv-AdL-7" value="False" style="text;html=1;align=center;verticalAlign=middle;resizable=0;points=[];autosize=1;" vertex="1" parent="1">
          <mxGeometry x="570" y="810" width="40" height="20" as="geometry" />
        </mxCell>
        <mxCell id="t2oTwk8DVBexvegv-AdL-8" value="False" style="text;html=1;align=center;verticalAlign=middle;resizable=0;points=[];autosize=1;" vertex="1" parent="1">
          <mxGeometry x="563" y="700" width="40" height="20" as="geometry" />
        </mxCell>
        <mxCell id="t2oTwk8DVBexvegv-AdL-9" value="False" style="text;html=1;align=center;verticalAlign=middle;resizable=0;points=[];autosize=1;" vertex="1" parent="1">
          <mxGeometry x="563" y="600" width="40" height="20" as="geometry" />
        </mxCell>
        <mxCell id="t2oTwk8DVBexvegv-AdL-10" value="False" style="text;html=1;align=center;verticalAlign=middle;resizable=0;points=[];autosize=1;" vertex="1" parent="1">
          <mxGeometry x="563" y="490" width="40" height="20" as="geometry" />
        </mxCell>
      </root>
    </mxGraphModel>
  </diagram>
  <diagram id="Qdlk5QYMkJc4JxkGCav2" name="Task-2">
    <mxGraphModel dx="779" dy="366" grid="1" gridSize="10" guides="1" tooltips="1" connect="1" arrows="1" fold="1" page="1" pageScale="1" pageWidth="827" pageHeight="1169" math="0" shadow="0">
      <root>
        <mxCell id="s9MO6slRQAKR452YOkkZ-0" />
        <mxCell id="s9MO6slRQAKR452YOkkZ-1" parent="s9MO6slRQAKR452YOkkZ-0" />
        <mxCell id="WdgyCrZn1hmxIxN4cczu-21" style="edgeStyle=orthogonalEdgeStyle;rounded=0;orthogonalLoop=1;jettySize=auto;html=1;exitX=0.5;exitY=1;exitDx=0;exitDy=0;entryX=0.5;entryY=0;entryDx=0;entryDy=0;" edge="1" parent="s9MO6slRQAKR452YOkkZ-1" source="s9MO6slRQAKR452YOkkZ-2" target="s9MO6slRQAKR452YOkkZ-3">
          <mxGeometry relative="1" as="geometry" />
        </mxCell>
        <mxCell id="s9MO6slRQAKR452YOkkZ-2" value="Начало" style="ellipse;whiteSpace=wrap;html=1;" vertex="1" parent="s9MO6slRQAKR452YOkkZ-1">
          <mxGeometry x="354" y="40" width="120" height="30" as="geometry" />
        </mxCell>
        <mxCell id="WdgyCrZn1hmxIxN4cczu-22" style="edgeStyle=orthogonalEdgeStyle;rounded=0;orthogonalLoop=1;jettySize=auto;html=1;exitX=0.5;exitY=1;exitDx=0;exitDy=0;entryX=0.5;entryY=0;entryDx=0;entryDy=0;" edge="1" parent="s9MO6slRQAKR452YOkkZ-1" source="s9MO6slRQAKR452YOkkZ-3" target="s9MO6slRQAKR452YOkkZ-5">
          <mxGeometry relative="1" as="geometry" />
        </mxCell>
        <mxCell id="s9MO6slRQAKR452YOkkZ-3" value="Введите число" style="shape=parallelogram;perimeter=parallelogramPerimeter;whiteSpace=wrap;html=1;fixedSize=1;" vertex="1" parent="s9MO6slRQAKR452YOkkZ-1">
          <mxGeometry x="354" y="90" width="120" height="40" as="geometry" />
        </mxCell>
        <mxCell id="s9MO6slRQAKR452YOkkZ-4" style="edgeStyle=orthogonalEdgeStyle;rounded=0;orthogonalLoop=1;jettySize=auto;html=1;exitX=0.5;exitY=1;exitDx=0;exitDy=0;" edge="1" parent="s9MO6slRQAKR452YOkkZ-1" source="s9MO6slRQAKR452YOkkZ-3" target="s9MO6slRQAKR452YOkkZ-3">
          <mxGeometry relative="1" as="geometry" />
        </mxCell>
        <mxCell id="WdgyCrZn1hmxIxN4cczu-23" style="edgeStyle=orthogonalEdgeStyle;rounded=0;orthogonalLoop=1;jettySize=auto;html=1;exitX=0.5;exitY=1;exitDx=0;exitDy=0;entryX=0.5;entryY=0;entryDx=0;entryDy=0;" edge="1" parent="s9MO6slRQAKR452YOkkZ-1" source="s9MO6slRQAKR452YOkkZ-5" target="WdgyCrZn1hmxIxN4cczu-3">
          <mxGeometry relative="1" as="geometry" />
        </mxCell>
        <mxCell id="s9MO6slRQAKR452YOkkZ-5" value="ввод а" style="shape=parallelogram;perimeter=parallelogramPerimeter;whiteSpace=wrap;html=1;fixedSize=1;" vertex="1" parent="s9MO6slRQAKR452YOkkZ-1">
          <mxGeometry x="354" y="150" width="120" height="40" as="geometry" />
        </mxCell>
        <mxCell id="WdgyCrZn1hmxIxN4cczu-4" style="edgeStyle=orthogonalEdgeStyle;rounded=0;orthogonalLoop=1;jettySize=auto;html=1;exitX=0.5;exitY=1;exitDx=0;exitDy=0;entryX=0.5;entryY=0;entryDx=0;entryDy=0;" edge="1" parent="s9MO6slRQAKR452YOkkZ-1" source="WdgyCrZn1hmxIxN4cczu-0" target="WdgyCrZn1hmxIxN4cczu-2">
          <mxGeometry relative="1" as="geometry" />
        </mxCell>
        <mxCell id="WdgyCrZn1hmxIxN4cczu-19" style="edgeStyle=orthogonalEdgeStyle;rounded=0;orthogonalLoop=1;jettySize=auto;html=1;exitX=1;exitY=0.5;exitDx=0;exitDy=0;entryX=0.5;entryY=0;entryDx=0;entryDy=0;" edge="1" parent="s9MO6slRQAKR452YOkkZ-1" source="WdgyCrZn1hmxIxN4cczu-0" target="WdgyCrZn1hmxIxN4cczu-18">
          <mxGeometry relative="1" as="geometry">
            <Array as="points">
              <mxPoint x="640" y="340" />
              <mxPoint x="640" y="680" />
              <mxPoint x="480" y="680" />
            </Array>
          </mxGeometry>
        </mxCell>
        <mxCell id="WdgyCrZn1hmxIxN4cczu-0" value="i &amp;lt;=n" style="rhombus;whiteSpace=wrap;html=1;" vertex="1" parent="s9MO6slRQAKR452YOkkZ-1">
          <mxGeometry x="374" y="300" width="80" height="80" as="geometry" />
        </mxCell>
        <mxCell id="WdgyCrZn1hmxIxN4cczu-7" style="edgeStyle=orthogonalEdgeStyle;rounded=0;orthogonalLoop=1;jettySize=auto;html=1;exitX=0.5;exitY=1;exitDx=0;exitDy=0;entryX=0.5;entryY=0;entryDx=0;entryDy=0;" edge="1" parent="s9MO6slRQAKR452YOkkZ-1" source="WdgyCrZn1hmxIxN4cczu-2" target="WdgyCrZn1hmxIxN4cczu-6">
          <mxGeometry relative="1" as="geometry" />
        </mxCell>
        <mxCell id="WdgyCrZn1hmxIxN4cczu-10" style="edgeStyle=orthogonalEdgeStyle;rounded=0;orthogonalLoop=1;jettySize=auto;html=1;exitX=1;exitY=0.5;exitDx=0;exitDy=0;" edge="1" parent="s9MO6slRQAKR452YOkkZ-1" source="WdgyCrZn1hmxIxN4cczu-2" target="WdgyCrZn1hmxIxN4cczu-9">
          <mxGeometry relative="1" as="geometry" />
        </mxCell>
        <mxCell id="WdgyCrZn1hmxIxN4cczu-2" value="int(a[i])%2 == 0" style="rhombus;whiteSpace=wrap;html=1;" vertex="1" parent="s9MO6slRQAKR452YOkkZ-1">
          <mxGeometry x="321" y="400" width="186" height="80" as="geometry" />
        </mxCell>
        <mxCell id="WdgyCrZn1hmxIxN4cczu-5" style="edgeStyle=orthogonalEdgeStyle;rounded=0;orthogonalLoop=1;jettySize=auto;html=1;exitX=0.5;exitY=1;exitDx=0;exitDy=0;entryX=0.5;entryY=0;entryDx=0;entryDy=0;" edge="1" parent="s9MO6slRQAKR452YOkkZ-1" source="WdgyCrZn1hmxIxN4cczu-3" target="WdgyCrZn1hmxIxN4cczu-0">
          <mxGeometry relative="1" as="geometry" />
        </mxCell>
        <mxCell id="WdgyCrZn1hmxIxN4cczu-3" value="i = 0&lt;br&gt;cnt1 = 0&lt;br&gt;cnt2 = 0" style="rounded=0;whiteSpace=wrap;html=1;" vertex="1" parent="s9MO6slRQAKR452YOkkZ-1">
          <mxGeometry x="354" y="210" width="120" height="60" as="geometry" />
        </mxCell>
        <mxCell id="WdgyCrZn1hmxIxN4cczu-13" style="edgeStyle=orthogonalEdgeStyle;rounded=0;orthogonalLoop=1;jettySize=auto;html=1;exitX=0.5;exitY=1;exitDx=0;exitDy=0;" edge="1" parent="s9MO6slRQAKR452YOkkZ-1" source="WdgyCrZn1hmxIxN4cczu-6">
          <mxGeometry relative="1" as="geometry">
            <mxPoint x="480" y="610" as="targetPoint" />
            <Array as="points">
              <mxPoint x="414" y="570" />
              <mxPoint x="480" y="570" />
            </Array>
          </mxGeometry>
        </mxCell>
        <mxCell id="WdgyCrZn1hmxIxN4cczu-6" value="cnt2 = cnt2 + 1" style="rounded=0;whiteSpace=wrap;html=1;" vertex="1" parent="s9MO6slRQAKR452YOkkZ-1">
          <mxGeometry x="354" y="500" width="120" height="30" as="geometry" />
        </mxCell>
        <mxCell id="WdgyCrZn1hmxIxN4cczu-14" style="edgeStyle=orthogonalEdgeStyle;rounded=0;orthogonalLoop=1;jettySize=auto;html=1;exitX=0.5;exitY=1;exitDx=0;exitDy=0;entryX=0;entryY=0.5;entryDx=0;entryDy=0;" edge="1" parent="s9MO6slRQAKR452YOkkZ-1" source="WdgyCrZn1hmxIxN4cczu-8" target="WdgyCrZn1hmxIxN4cczu-0">
          <mxGeometry relative="1" as="geometry">
            <Array as="points">
              <mxPoint x="480" y="660" />
              <mxPoint x="280" y="660" />
              <mxPoint x="280" y="340" />
            </Array>
          </mxGeometry>
        </mxCell>
        <mxCell id="WdgyCrZn1hmxIxN4cczu-8" value="i = i+1&lt;br&gt;" style="rounded=0;whiteSpace=wrap;html=1;" vertex="1" parent="s9MO6slRQAKR452YOkkZ-1">
          <mxGeometry x="420" y="610" width="120" height="30" as="geometry" />
        </mxCell>
        <mxCell id="WdgyCrZn1hmxIxN4cczu-12" style="edgeStyle=orthogonalEdgeStyle;rounded=0;orthogonalLoop=1;jettySize=auto;html=1;exitX=0.5;exitY=1;exitDx=0;exitDy=0;" edge="1" parent="s9MO6slRQAKR452YOkkZ-1" source="WdgyCrZn1hmxIxN4cczu-9" target="WdgyCrZn1hmxIxN4cczu-8">
          <mxGeometry relative="1" as="geometry" />
        </mxCell>
        <mxCell id="WdgyCrZn1hmxIxN4cczu-9" value="cnt2 = cnt2 + 1" style="rounded=0;whiteSpace=wrap;html=1;" vertex="1" parent="s9MO6slRQAKR452YOkkZ-1">
          <mxGeometry x="507" y="500" width="120" height="30" as="geometry" />
        </mxCell>
        <mxCell id="WdgyCrZn1hmxIxN4cczu-11" value="False" style="text;html=1;align=center;verticalAlign=middle;resizable=0;points=[];autosize=1;" vertex="1" parent="s9MO6slRQAKR452YOkkZ-1">
          <mxGeometry x="520" y="420" width="40" height="20" as="geometry" />
        </mxCell>
        <mxCell id="WdgyCrZn1hmxIxN4cczu-16" value="Конец" style="ellipse;whiteSpace=wrap;html=1;" vertex="1" parent="s9MO6slRQAKR452YOkkZ-1">
          <mxGeometry x="420" y="810" width="120" height="30" as="geometry" />
        </mxCell>
        <mxCell id="WdgyCrZn1hmxIxN4cczu-20" style="edgeStyle=orthogonalEdgeStyle;rounded=0;orthogonalLoop=1;jettySize=auto;html=1;exitX=0.5;exitY=1;exitDx=0;exitDy=0;entryX=0.5;entryY=0;entryDx=0;entryDy=0;" edge="1" parent="s9MO6slRQAKR452YOkkZ-1" source="WdgyCrZn1hmxIxN4cczu-18" target="WdgyCrZn1hmxIxN4cczu-16">
          <mxGeometry relative="1" as="geometry" />
        </mxCell>
        <mxCell id="WdgyCrZn1hmxIxN4cczu-18" value="Вывод &lt;br&gt;нечётных cnt1&amp;nbsp;&lt;br&gt;четных cnt2" style="shape=parallelogram;perimeter=parallelogramPerimeter;whiteSpace=wrap;html=1;fixedSize=1;" vertex="1" parent="s9MO6slRQAKR452YOkkZ-1">
          <mxGeometry x="420" y="700" width="120" height="60" as="geometry" />
        </mxCell>
        <mxCell id="WdgyCrZn1hmxIxN4cczu-24" value="False" style="text;html=1;align=center;verticalAlign=middle;resizable=0;points=[];autosize=1;" vertex="1" parent="s9MO6slRQAKR452YOkkZ-1">
          <mxGeometry x="454" y="320" width="40" height="20" as="geometry" />
        </mxCell>
      </root>
    </mxGraphModel>
  </diagram>
  <diagram id="UvPO1pqg-oHiMkGuBNw4" name="Task-3">
    <mxGraphModel dx="779" dy="366" grid="1" gridSize="10" guides="1" tooltips="1" connect="1" arrows="1" fold="1" page="1" pageScale="1" pageWidth="827" pageHeight="1169" math="0" shadow="0">
      <root>
        <mxCell id="DnpCAjdYiJS0ljS0bG-s-0" />
        <mxCell id="DnpCAjdYiJS0ljS0bG-s-1" parent="DnpCAjdYiJS0ljS0bG-s-0" />
        <mxCell id="DnpCAjdYiJS0ljS0bG-s-22" style="edgeStyle=orthogonalEdgeStyle;rounded=0;orthogonalLoop=1;jettySize=auto;html=1;exitX=0.5;exitY=1;exitDx=0;exitDy=0;entryX=0.5;entryY=0;entryDx=0;entryDy=0;" edge="1" parent="DnpCAjdYiJS0ljS0bG-s-1" source="DnpCAjdYiJS0ljS0bG-s-2" target="DnpCAjdYiJS0ljS0bG-s-9">
          <mxGeometry relative="1" as="geometry" />
        </mxCell>
        <mxCell id="DnpCAjdYiJS0ljS0bG-s-2" value="Начало" style="ellipse;whiteSpace=wrap;html=1;" vertex="1" parent="DnpCAjdYiJS0ljS0bG-s-1">
          <mxGeometry x="354" y="40" width="120" height="30" as="geometry" />
        </mxCell>
        <mxCell id="DnpCAjdYiJS0ljS0bG-s-16" style="edgeStyle=orthogonalEdgeStyle;rounded=0;orthogonalLoop=1;jettySize=auto;html=1;exitX=1;exitY=0.5;exitDx=0;exitDy=0;" edge="1" parent="DnpCAjdYiJS0ljS0bG-s-1" source="DnpCAjdYiJS0ljS0bG-s-3" target="DnpCAjdYiJS0ljS0bG-s-14">
          <mxGeometry relative="1" as="geometry">
            <Array as="points">
              <mxPoint x="500" y="275" />
              <mxPoint x="500" y="440" />
              <mxPoint x="414" y="440" />
            </Array>
          </mxGeometry>
        </mxCell>
        <mxCell id="DnpCAjdYiJS0ljS0bG-s-18" style="edgeStyle=orthogonalEdgeStyle;rounded=0;orthogonalLoop=1;jettySize=auto;html=1;exitX=0.5;exitY=1;exitDx=0;exitDy=0;entryX=0.5;entryY=0;entryDx=0;entryDy=0;" edge="1" parent="DnpCAjdYiJS0ljS0bG-s-1" source="DnpCAjdYiJS0ljS0bG-s-3" target="DnpCAjdYiJS0ljS0bG-s-6">
          <mxGeometry relative="1" as="geometry" />
        </mxCell>
        <mxCell id="DnpCAjdYiJS0ljS0bG-s-3" value="i &amp;lt;= n" style="rhombus;whiteSpace=wrap;html=1;" vertex="1" parent="DnpCAjdYiJS0ljS0bG-s-1">
          <mxGeometry x="348" y="250" width="131" height="50" as="geometry" />
        </mxCell>
        <mxCell id="DnpCAjdYiJS0ljS0bG-s-19" style="edgeStyle=orthogonalEdgeStyle;rounded=0;orthogonalLoop=1;jettySize=auto;html=1;exitX=0.5;exitY=1;exitDx=0;exitDy=0;entryX=0.5;entryY=0;entryDx=0;entryDy=0;" edge="1" parent="DnpCAjdYiJS0ljS0bG-s-1" source="DnpCAjdYiJS0ljS0bG-s-4" target="DnpCAjdYiJS0ljS0bG-s-3">
          <mxGeometry relative="1" as="geometry" />
        </mxCell>
        <mxCell id="DnpCAjdYiJS0ljS0bG-s-4" value="i = 0" style="rounded=0;whiteSpace=wrap;html=1;" vertex="1" parent="DnpCAjdYiJS0ljS0bG-s-1">
          <mxGeometry x="354" y="200" width="120" height="30" as="geometry" />
        </mxCell>
        <mxCell id="DnpCAjdYiJS0ljS0bG-s-5" style="edgeStyle=orthogonalEdgeStyle;rounded=0;orthogonalLoop=1;jettySize=auto;html=1;exitX=0.5;exitY=1;exitDx=0;exitDy=0;" edge="1" parent="DnpCAjdYiJS0ljS0bG-s-1" source="DnpCAjdYiJS0ljS0bG-s-3" target="DnpCAjdYiJS0ljS0bG-s-3">
          <mxGeometry relative="1" as="geometry" />
        </mxCell>
        <mxCell id="DnpCAjdYiJS0ljS0bG-s-17" style="edgeStyle=orthogonalEdgeStyle;rounded=0;orthogonalLoop=1;jettySize=auto;html=1;exitX=0.5;exitY=1;exitDx=0;exitDy=0;entryX=0.5;entryY=0;entryDx=0;entryDy=0;" edge="1" parent="DnpCAjdYiJS0ljS0bG-s-1" source="DnpCAjdYiJS0ljS0bG-s-6" target="DnpCAjdYiJS0ljS0bG-s-8">
          <mxGeometry relative="1" as="geometry" />
        </mxCell>
        <mxCell id="DnpCAjdYiJS0ljS0bG-s-6" value="b = a[i] + b" style="rounded=0;whiteSpace=wrap;html=1;" vertex="1" parent="DnpCAjdYiJS0ljS0bG-s-1">
          <mxGeometry x="353.5" y="320" width="120" height="30" as="geometry" />
        </mxCell>
        <mxCell id="DnpCAjdYiJS0ljS0bG-s-11" style="edgeStyle=orthogonalEdgeStyle;rounded=0;orthogonalLoop=1;jettySize=auto;html=1;exitX=0.5;exitY=1;exitDx=0;exitDy=0;entryX=0;entryY=0.5;entryDx=0;entryDy=0;" edge="1" parent="DnpCAjdYiJS0ljS0bG-s-1" source="DnpCAjdYiJS0ljS0bG-s-8" target="DnpCAjdYiJS0ljS0bG-s-3">
          <mxGeometry relative="1" as="geometry" />
        </mxCell>
        <mxCell id="DnpCAjdYiJS0ljS0bG-s-8" value="i = i + 1" style="rounded=0;whiteSpace=wrap;html=1;" vertex="1" parent="DnpCAjdYiJS0ljS0bG-s-1">
          <mxGeometry x="353.5" y="380" width="120" height="30" as="geometry" />
        </mxCell>
        <mxCell id="DnpCAjdYiJS0ljS0bG-s-21" style="edgeStyle=orthogonalEdgeStyle;rounded=0;orthogonalLoop=1;jettySize=auto;html=1;exitX=0.5;exitY=1;exitDx=0;exitDy=0;entryX=0.5;entryY=0;entryDx=0;entryDy=0;" edge="1" parent="DnpCAjdYiJS0ljS0bG-s-1" source="DnpCAjdYiJS0ljS0bG-s-9" target="DnpCAjdYiJS0ljS0bG-s-10">
          <mxGeometry relative="1" as="geometry" />
        </mxCell>
        <mxCell id="DnpCAjdYiJS0ljS0bG-s-9" value="Введите число" style="shape=parallelogram;perimeter=parallelogramPerimeter;whiteSpace=wrap;html=1;fixedSize=1;" vertex="1" parent="DnpCAjdYiJS0ljS0bG-s-1">
          <mxGeometry x="354" y="90" width="120" height="30" as="geometry" />
        </mxCell>
        <mxCell id="DnpCAjdYiJS0ljS0bG-s-20" style="edgeStyle=orthogonalEdgeStyle;rounded=0;orthogonalLoop=1;jettySize=auto;html=1;exitX=0.5;exitY=1;exitDx=0;exitDy=0;entryX=0.5;entryY=0;entryDx=0;entryDy=0;" edge="1" parent="DnpCAjdYiJS0ljS0bG-s-1" source="DnpCAjdYiJS0ljS0bG-s-10" target="DnpCAjdYiJS0ljS0bG-s-4">
          <mxGeometry relative="1" as="geometry" />
        </mxCell>
        <mxCell id="DnpCAjdYiJS0ljS0bG-s-10" value="Ввод a" style="shape=parallelogram;perimeter=parallelogramPerimeter;whiteSpace=wrap;html=1;fixedSize=1;" vertex="1" parent="DnpCAjdYiJS0ljS0bG-s-1">
          <mxGeometry x="354" y="150" width="120" height="30" as="geometry" />
        </mxCell>
        <mxCell id="DnpCAjdYiJS0ljS0bG-s-12" value="Конец" style="ellipse;whiteSpace=wrap;html=1;" vertex="1" parent="DnpCAjdYiJS0ljS0bG-s-1">
          <mxGeometry x="354" y="540" width="120" height="30" as="geometry" />
        </mxCell>
        <mxCell id="DnpCAjdYiJS0ljS0bG-s-15" style="edgeStyle=orthogonalEdgeStyle;rounded=0;orthogonalLoop=1;jettySize=auto;html=1;exitX=0.5;exitY=1;exitDx=0;exitDy=0;entryX=0.5;entryY=0;entryDx=0;entryDy=0;" edge="1" parent="DnpCAjdYiJS0ljS0bG-s-1" source="DnpCAjdYiJS0ljS0bG-s-14" target="DnpCAjdYiJS0ljS0bG-s-12">
          <mxGeometry relative="1" as="geometry" />
        </mxCell>
        <mxCell id="DnpCAjdYiJS0ljS0bG-s-14" value="Вывод &lt;br&gt;b" style="shape=parallelogram;perimeter=parallelogramPerimeter;whiteSpace=wrap;html=1;fixedSize=1;" vertex="1" parent="DnpCAjdYiJS0ljS0bG-s-1">
          <mxGeometry x="354" y="460" width="120" height="60" as="geometry" />
        </mxCell>
        <mxCell id="DnpCAjdYiJS0ljS0bG-s-23" value="False" style="text;html=1;align=center;verticalAlign=middle;resizable=0;points=[];autosize=1;" vertex="1" parent="DnpCAjdYiJS0ljS0bG-s-1">
          <mxGeometry x="470" y="250" width="40" height="20" as="geometry" />
        </mxCell>
      </root>
    </mxGraphModel>
  </diagram>
  <diagram id="UFjk6cP5AfLY-QPgehXb" name="Task-4">
    <mxGraphModel dx="779" dy="366" grid="1" gridSize="10" guides="1" tooltips="1" connect="1" arrows="1" fold="1" page="1" pageScale="1" pageWidth="827" pageHeight="1169" math="0" shadow="0">
      <root>
        <mxCell id="_ZFio7NcWBUALwtwjm5H-0" />
        <mxCell id="_ZFio7NcWBUALwtwjm5H-1" parent="_ZFio7NcWBUALwtwjm5H-0" />
        <mxCell id="_ZFio7NcWBUALwtwjm5H-31" style="edgeStyle=orthogonalEdgeStyle;rounded=0;orthogonalLoop=1;jettySize=auto;html=1;exitX=0.5;exitY=1;exitDx=0;exitDy=0;entryX=0.5;entryY=0;entryDx=0;entryDy=0;" edge="1" parent="_ZFio7NcWBUALwtwjm5H-1" source="_ZFio7NcWBUALwtwjm5H-2" target="_ZFio7NcWBUALwtwjm5H-3">
          <mxGeometry relative="1" as="geometry" />
        </mxCell>
        <mxCell id="_ZFio7NcWBUALwtwjm5H-2" value="Начало" style="ellipse;whiteSpace=wrap;html=1;" vertex="1" parent="_ZFio7NcWBUALwtwjm5H-1">
          <mxGeometry x="354" y="40" width="120" height="30" as="geometry" />
        </mxCell>
        <mxCell id="_ZFio7NcWBUALwtwjm5H-30" style="edgeStyle=orthogonalEdgeStyle;rounded=0;orthogonalLoop=1;jettySize=auto;html=1;exitX=0.5;exitY=1;exitDx=0;exitDy=0;entryX=0.5;entryY=0;entryDx=0;entryDy=0;" edge="1" parent="_ZFio7NcWBUALwtwjm5H-1" source="_ZFio7NcWBUALwtwjm5H-3" target="_ZFio7NcWBUALwtwjm5H-4">
          <mxGeometry relative="1" as="geometry" />
        </mxCell>
        <mxCell id="_ZFio7NcWBUALwtwjm5H-3" value="Введите &lt;br&gt;количество элементов" style="shape=parallelogram;perimeter=parallelogramPerimeter;whiteSpace=wrap;html=1;fixedSize=1;" vertex="1" parent="_ZFio7NcWBUALwtwjm5H-1">
          <mxGeometry x="354" y="110" width="120" height="60" as="geometry" />
        </mxCell>
        <mxCell id="_ZFio7NcWBUALwtwjm5H-29" style="edgeStyle=orthogonalEdgeStyle;rounded=0;orthogonalLoop=1;jettySize=auto;html=1;exitX=0.5;exitY=1;exitDx=0;exitDy=0;entryX=0.5;entryY=0;entryDx=0;entryDy=0;" edge="1" parent="_ZFio7NcWBUALwtwjm5H-1" source="_ZFio7NcWBUALwtwjm5H-4" target="_ZFio7NcWBUALwtwjm5H-5">
          <mxGeometry relative="1" as="geometry" />
        </mxCell>
        <mxCell id="_ZFio7NcWBUALwtwjm5H-4" value="ввод n" style="shape=parallelogram;perimeter=parallelogramPerimeter;whiteSpace=wrap;html=1;fixedSize=1;" vertex="1" parent="_ZFio7NcWBUALwtwjm5H-1">
          <mxGeometry x="354" y="200" width="120" height="30" as="geometry" />
        </mxCell>
        <mxCell id="_ZFio7NcWBUALwtwjm5H-22" style="edgeStyle=orthogonalEdgeStyle;rounded=0;orthogonalLoop=1;jettySize=auto;html=1;exitX=0.5;exitY=1;exitDx=0;exitDy=0;entryX=0.5;entryY=0;entryDx=0;entryDy=0;" edge="1" parent="_ZFio7NcWBUALwtwjm5H-1" source="_ZFio7NcWBUALwtwjm5H-5" target="_ZFio7NcWBUALwtwjm5H-6">
          <mxGeometry relative="1" as="geometry" />
        </mxCell>
        <mxCell id="_ZFio7NcWBUALwtwjm5H-5" value="sum = 0&lt;br&gt;i = 0" style="rounded=0;whiteSpace=wrap;html=1;" vertex="1" parent="_ZFio7NcWBUALwtwjm5H-1">
          <mxGeometry x="354" y="260" width="120" height="30" as="geometry" />
        </mxCell>
        <mxCell id="_ZFio7NcWBUALwtwjm5H-15" style="edgeStyle=orthogonalEdgeStyle;rounded=0;orthogonalLoop=1;jettySize=auto;html=1;exitX=0.5;exitY=1;exitDx=0;exitDy=0;entryX=0.5;entryY=0;entryDx=0;entryDy=0;" edge="1" parent="_ZFio7NcWBUALwtwjm5H-1" source="_ZFio7NcWBUALwtwjm5H-6" target="_ZFio7NcWBUALwtwjm5H-10">
          <mxGeometry relative="1" as="geometry" />
        </mxCell>
        <mxCell id="_ZFio7NcWBUALwtwjm5H-28" style="edgeStyle=orthogonalEdgeStyle;rounded=0;orthogonalLoop=1;jettySize=auto;html=1;exitX=1;exitY=0.5;exitDx=0;exitDy=0;entryX=0.5;entryY=0;entryDx=0;entryDy=0;" edge="1" parent="_ZFio7NcWBUALwtwjm5H-1" source="_ZFio7NcWBUALwtwjm5H-6" target="_ZFio7NcWBUALwtwjm5H-25">
          <mxGeometry relative="1" as="geometry">
            <Array as="points">
              <mxPoint x="680" y="345" />
              <mxPoint x="680" y="660" />
              <mxPoint x="414" y="660" />
            </Array>
          </mxGeometry>
        </mxCell>
        <mxCell id="_ZFio7NcWBUALwtwjm5H-6" value="i &amp;lt; n" style="rhombus;whiteSpace=wrap;html=1;" vertex="1" parent="_ZFio7NcWBUALwtwjm5H-1">
          <mxGeometry x="353" y="320" width="121" height="50" as="geometry" />
        </mxCell>
        <mxCell id="_ZFio7NcWBUALwtwjm5H-7" style="edgeStyle=orthogonalEdgeStyle;rounded=0;orthogonalLoop=1;jettySize=auto;html=1;exitX=0.5;exitY=1;exitDx=0;exitDy=0;" edge="1" parent="_ZFio7NcWBUALwtwjm5H-1" source="_ZFio7NcWBUALwtwjm5H-6" target="_ZFio7NcWBUALwtwjm5H-6">
          <mxGeometry relative="1" as="geometry" />
        </mxCell>
        <mxCell id="_ZFio7NcWBUALwtwjm5H-8" style="edgeStyle=orthogonalEdgeStyle;rounded=0;orthogonalLoop=1;jettySize=auto;html=1;exitX=0.5;exitY=1;exitDx=0;exitDy=0;" edge="1" parent="_ZFio7NcWBUALwtwjm5H-1" source="_ZFio7NcWBUALwtwjm5H-6" target="_ZFio7NcWBUALwtwjm5H-6">
          <mxGeometry relative="1" as="geometry" />
        </mxCell>
        <mxCell id="_ZFio7NcWBUALwtwjm5H-13" style="edgeStyle=orthogonalEdgeStyle;rounded=0;orthogonalLoop=1;jettySize=auto;html=1;exitX=0.5;exitY=1;exitDx=0;exitDy=0;entryX=0.61;entryY=0;entryDx=0;entryDy=0;entryPerimeter=0;" edge="1" parent="_ZFio7NcWBUALwtwjm5H-1" source="_ZFio7NcWBUALwtwjm5H-10" target="_ZFio7NcWBUALwtwjm5H-11">
          <mxGeometry relative="1" as="geometry" />
        </mxCell>
        <mxCell id="_ZFio7NcWBUALwtwjm5H-14" style="edgeStyle=orthogonalEdgeStyle;rounded=0;orthogonalLoop=1;jettySize=auto;html=1;exitX=1;exitY=0.5;exitDx=0;exitDy=0;entryX=0.5;entryY=0;entryDx=0;entryDy=0;" edge="1" parent="_ZFio7NcWBUALwtwjm5H-1" source="_ZFio7NcWBUALwtwjm5H-10" target="_ZFio7NcWBUALwtwjm5H-12">
          <mxGeometry relative="1" as="geometry" />
        </mxCell>
        <mxCell id="_ZFio7NcWBUALwtwjm5H-10" value="i%2 == 0" style="rhombus;whiteSpace=wrap;html=1;" vertex="1" parent="_ZFio7NcWBUALwtwjm5H-1">
          <mxGeometry x="319" y="400" width="190" height="80" as="geometry" />
        </mxCell>
        <mxCell id="_ZFio7NcWBUALwtwjm5H-17" style="edgeStyle=orthogonalEdgeStyle;rounded=0;orthogonalLoop=1;jettySize=auto;html=1;exitX=0.5;exitY=1;exitDx=0;exitDy=0;entryX=0.5;entryY=0;entryDx=0;entryDy=0;" edge="1" parent="_ZFio7NcWBUALwtwjm5H-1" source="_ZFio7NcWBUALwtwjm5H-11" target="_ZFio7NcWBUALwtwjm5H-16">
          <mxGeometry relative="1" as="geometry">
            <Array as="points">
              <mxPoint x="414" y="540" />
            </Array>
          </mxGeometry>
        </mxCell>
        <mxCell id="_ZFio7NcWBUALwtwjm5H-11" value="sum =&amp;nbsp;sum +&amp;nbsp;1/2**i" style="rounded=0;whiteSpace=wrap;html=1;" vertex="1" parent="_ZFio7NcWBUALwtwjm5H-1">
          <mxGeometry x="320" y="510" width="154" height="30" as="geometry" />
        </mxCell>
        <mxCell id="_ZFio7NcWBUALwtwjm5H-18" style="edgeStyle=orthogonalEdgeStyle;rounded=0;orthogonalLoop=1;jettySize=auto;html=1;exitX=0.5;exitY=1;exitDx=0;exitDy=0;" edge="1" parent="_ZFio7NcWBUALwtwjm5H-1" source="_ZFio7NcWBUALwtwjm5H-12" target="_ZFio7NcWBUALwtwjm5H-16">
          <mxGeometry relative="1" as="geometry" />
        </mxCell>
        <mxCell id="_ZFio7NcWBUALwtwjm5H-12" value="sum = sum - 1/2**i" style="rounded=0;whiteSpace=wrap;html=1;" vertex="1" parent="_ZFio7NcWBUALwtwjm5H-1">
          <mxGeometry x="490" y="510" width="150" height="30" as="geometry" />
        </mxCell>
        <mxCell id="_ZFio7NcWBUALwtwjm5H-21" style="edgeStyle=orthogonalEdgeStyle;rounded=0;orthogonalLoop=1;jettySize=auto;html=1;exitX=0.5;exitY=1;exitDx=0;exitDy=0;entryX=0;entryY=0.5;entryDx=0;entryDy=0;" edge="1" parent="_ZFio7NcWBUALwtwjm5H-1" source="_ZFio7NcWBUALwtwjm5H-16" target="_ZFio7NcWBUALwtwjm5H-6">
          <mxGeometry relative="1" as="geometry">
            <Array as="points">
              <mxPoint x="414" y="635" />
              <mxPoint x="280" y="635" />
              <mxPoint x="280" y="345" />
            </Array>
          </mxGeometry>
        </mxCell>
        <mxCell id="_ZFio7NcWBUALwtwjm5H-16" value="i = i + 1" style="rounded=0;whiteSpace=wrap;html=1;" vertex="1" parent="_ZFio7NcWBUALwtwjm5H-1">
          <mxGeometry x="354" y="585" width="120" height="30" as="geometry" />
        </mxCell>
        <mxCell id="_ZFio7NcWBUALwtwjm5H-19" value="False" style="text;html=1;align=center;verticalAlign=middle;resizable=0;points=[];autosize=1;" vertex="1" parent="_ZFio7NcWBUALwtwjm5H-1">
          <mxGeometry x="510" y="410" width="40" height="20" as="geometry" />
        </mxCell>
        <mxCell id="_ZFio7NcWBUALwtwjm5H-20" value="True" style="text;html=1;align=center;verticalAlign=middle;resizable=0;points=[];autosize=1;" vertex="1" parent="_ZFio7NcWBUALwtwjm5H-1">
          <mxGeometry x="360" y="480" width="40" height="20" as="geometry" />
        </mxCell>
        <mxCell id="_ZFio7NcWBUALwtwjm5H-23" value="True" style="text;html=1;align=center;verticalAlign=middle;resizable=0;points=[];autosize=1;" vertex="1" parent="_ZFio7NcWBUALwtwjm5H-1">
          <mxGeometry x="427" y="374" width="40" height="20" as="geometry" />
        </mxCell>
        <mxCell id="_ZFio7NcWBUALwtwjm5H-24" value="False" style="text;html=1;align=center;verticalAlign=middle;resizable=0;points=[];autosize=1;" vertex="1" parent="_ZFio7NcWBUALwtwjm5H-1">
          <mxGeometry x="480" y="320" width="40" height="20" as="geometry" />
        </mxCell>
        <mxCell id="_ZFio7NcWBUALwtwjm5H-27" style="edgeStyle=orthogonalEdgeStyle;rounded=0;orthogonalLoop=1;jettySize=auto;html=1;exitX=0.5;exitY=1;exitDx=0;exitDy=0;entryX=0.5;entryY=0;entryDx=0;entryDy=0;" edge="1" parent="_ZFio7NcWBUALwtwjm5H-1" source="_ZFio7NcWBUALwtwjm5H-25" target="_ZFio7NcWBUALwtwjm5H-26">
          <mxGeometry relative="1" as="geometry" />
        </mxCell>
        <mxCell id="_ZFio7NcWBUALwtwjm5H-25" value="Вывод &lt;br&gt;sum" style="shape=parallelogram;perimeter=parallelogramPerimeter;whiteSpace=wrap;html=1;fixedSize=1;" vertex="1" parent="_ZFio7NcWBUALwtwjm5H-1">
          <mxGeometry x="354" y="690" width="120" height="60" as="geometry" />
        </mxCell>
        <mxCell id="_ZFio7NcWBUALwtwjm5H-26" value="Конец" style="ellipse;whiteSpace=wrap;html=1;" vertex="1" parent="_ZFio7NcWBUALwtwjm5H-1">
          <mxGeometry x="354" y="790" width="120" height="30" as="geometry" />
        </mxCell>
      </root>
    </mxGraphModel>
  </diagram>
</mxfile>
